<svg width="48" height="48" viewBox="0 0 48 48" fill="none" xmlns="http://www.w3.org/2000/svg">
<g clip-path="url(#clip0_209_2)">
<rect width="48" height="48" fill="#F7B801"/>
<rect x="32" y="43.464" width="29" height="46.464" rx="4" transform="rotate(180 32 43.464)" fill="#F18701"/>
<ellipse cx="14.8049" cy="30.6739" rx="5.64528" ry="3.8319" transform="rotate(-30 14.8049 30.6739)" fill="#3D348B"/>
<line x1="19.0432" y1="28.8966" x2="19.0431" y2="7" stroke="#3D348B" stroke-width="2"/>
<path d="M19.5195 7C19.5195 12.4209 25.618 15.1314 23.5852 20.5523" stroke="#3D348B" stroke-width="2"/>
<path d="M57.6415 87.4785C57.7845 88.012 57.4679 88.5603 56.9344 88.7033L44.3774 92.0679C43.8439 92.2108 43.2956 91.8943 43.1526 91.3608L28.9027 38.1794C28.8698 38.0565 28.8606 37.9285 28.8757 37.8022L30.9484 20.4235C31.0553 19.5272 32.2013 19.2201 32.7421 19.9429L43.2264 33.9569C43.3026 34.0588 43.3587 34.1742 43.3916 34.2971L57.6415 87.4785Z" fill="#7678ED"/>
<rect x="28.9175" y="38.2349" width="15" height="4.6875" transform="rotate(-15 28.9175 38.2349)" fill="#F35B04"/>
</g>
<defs>
<clipPath id="clip0_209_2">
<rect width="48" height="48" rx="6" fill="white"/>
</clipPath>
</defs>
</svg>
